{"url": "https://api.github.com/repos/tensorflow/tensorflow/issues/14582", "repository_url": "https://api.github.com/repos/tensorflow/tensorflow", "labels_url": "https://api.github.com/repos/tensorflow/tensorflow/issues/14582/labels{/name}", "comments_url": "https://api.github.com/repos/tensorflow/tensorflow/issues/14582/comments", "events_url": "https://api.github.com/repos/tensorflow/tensorflow/issues/14582/events", "html_url": "https://github.com/tensorflow/tensorflow/pull/14582", "id": 274107645, "node_id": "MDExOlB1bGxSZXF1ZXN0MTUyNzM4MDQy", "number": 14582, "title": "Changed ffmpeg verbosity semantics", "user": {"login": "chrisdonahue", "id": 748399, "node_id": "MDQ6VXNlcjc0ODM5OQ==", "avatar_url": "https://avatars3.githubusercontent.com/u/748399?v=4", "gravatar_id": "", "url": "https://api.github.com/users/chrisdonahue", "html_url": "https://github.com/chrisdonahue", "followers_url": "https://api.github.com/users/chrisdonahue/followers", "following_url": "https://api.github.com/users/chrisdonahue/following{/other_user}", "gists_url": "https://api.github.com/users/chrisdonahue/gists{/gist_id}", "starred_url": "https://api.github.com/users/chrisdonahue/starred{/owner}{/repo}", "subscriptions_url": "https://api.github.com/users/chrisdonahue/subscriptions", "organizations_url": "https://api.github.com/users/chrisdonahue/orgs", "repos_url": "https://api.github.com/users/chrisdonahue/repos", "events_url": "https://api.github.com/users/chrisdonahue/events{/privacy}", "received_events_url": "https://api.github.com/users/chrisdonahue/received_events", "type": "User", "site_admin": false}, "labels": [{"id": 300136587, "node_id": "MDU6TGFiZWwzMDAxMzY1ODc=", "url": "https://api.github.com/repos/tensorflow/tensorflow/labels/cla:%20yes", "name": "cla: yes", "color": "009800", "default": false}], "state": "closed", "locked": false, "assignee": {"login": "jhseu", "id": 170179, "node_id": "MDQ6VXNlcjE3MDE3OQ==", "avatar_url": "https://avatars1.githubusercontent.com/u/170179?v=4", "gravatar_id": "", "url": "https://api.github.com/users/jhseu", "html_url": "https://github.com/jhseu", "followers_url": "https://api.github.com/users/jhseu/followers", "following_url": "https://api.github.com/users/jhseu/following{/other_user}", "gists_url": "https://api.github.com/users/jhseu/gists{/gist_id}", "starred_url": "https://api.github.com/users/jhseu/starred{/owner}{/repo}", "subscriptions_url": "https://api.github.com/users/jhseu/subscriptions", "organizations_url": "https://api.github.com/users/jhseu/orgs", "repos_url": "https://api.github.com/users/jhseu/repos", "events_url": "https://api.github.com/users/jhseu/events{/privacy}", "received_events_url": "https://api.github.com/users/jhseu/received_events", "type": "User", "site_admin": false}, "assignees": [{"login": "jhseu", "id": 170179, "node_id": "MDQ6VXNlcjE3MDE3OQ==", "avatar_url": "https://avatars1.githubusercontent.com/u/170179?v=4", "gravatar_id": "", "url": "https://api.github.com/users/jhseu", "html_url": "https://github.com/jhseu", "followers_url": "https://api.github.com/users/jhseu/followers", "following_url": "https://api.github.com/users/jhseu/following{/other_user}", "gists_url": "https://api.github.com/users/jhseu/gists{/gist_id}", "starred_url": "https://api.github.com/users/jhseu/starred{/owner}{/repo}", "subscriptions_url": "https://api.github.com/users/jhseu/subscriptions", "organizations_url": "https://api.github.com/users/jhseu/orgs", "repos_url": "https://api.github.com/users/jhseu/repos", "events_url": "https://api.github.com/users/jhseu/events{/privacy}", "received_events_url": "https://api.github.com/users/jhseu/received_events", "type": "User", "site_admin": false}], "milestone": null, "comments": 4, "created_at": "2017-11-15T10:34:08Z", "updated_at": "2017-12-14T23:10:03Z", "closed_at": "2017-12-14T23:10:03Z", "author_association": "CONTRIBUTOR", "pull_request": {"url": "https://api.github.com/repos/tensorflow/tensorflow/pulls/14582", "html_url": "https://github.com/tensorflow/tensorflow/pull/14582", "diff_url": "https://github.com/tensorflow/tensorflow/pull/14582.diff", "patch_url": "https://github.com/tensorflow/tensorflow/pull/14582.patch"}, "body_html": "<p>The <code>tf.contrib.ffmpeg.decode_*</code> and <code>tf.contrib.ffmpeg.encode_*</code> functions are extremely verbose and make it nearly impossible to see other printed messages.</p>\n<p>Corresponding methods for image such as <code>tf.image.decode_png</code> produce no output under normal conditions, and it would be nice for audio/video methods to align with this.</p>\n<h3>FFmpeg on valid MP3 file with <code>-loglevel info</code> and without <code>-hide_banner</code> (old semantics)</h3>\n<div class=\"highlight highlight-source-shell\"><pre>$ ffmpeg -loglevel info -nostats -i in.mp3 -acodec pcm_s16le -ar 44100 out.wav\nffmpeg version N-79546-g13406b6 Copyright (c) 2000-2016 the FFmpeg developers\n  built with gcc 5.3.0 (GCC)\n  configuration: --enable-gpl --enable-version3 --disable-w32threads --enable-avisynth --enable-bzlib --enable-fontconfig --enable-frei0r --enable-gnutls --enable-iconv --enable-libass --enable-libbluray --enable-libbs2b --enable-libcaca --enable-libfreetype --enable-libgme --enable-libgsm --enable-libilbc --enable-libmodplug --enable-libmfx --enable-libmp3lame --enable-libopencore-amrnb --enable-libopencore-amrwb --enable-libopenjpeg --enable-libopus --enable-librtmp --enable-libschroedinger --enable-libsnappy --enable-libsoxr --enable-libspeex --enable-libtheora --enable-libtwolame --enable-libvidstab --enable-libvo-amrwbenc --enable-libvorbis --enable-libvpx --enable-libwavpack --enable-libwebp --enable-libx264 --enable-libx265 --enable-libxavs --enable-libxvid --enable-libzimg --enable-lzma --enable-decklink --enable-zlib\n  libavutil      55. 22.100 / 55. 22.100\n  libavcodec     57. 35.100 / 57. 35.100\n  libavformat    57. 34.102 / 57. 34.102\n  libavdevice    57.  0.101 / 57.  0.101\n  libavfilter     6. 44.100 /  6. 44.100\n  libswscale      4.  1.100 /  4.  1.100\n  libswresample   2.  0.101 /  2.  0.101\n  libpostproc    54.  0.100 / 54.  0.100\n[mp3 @ 00000000010771e0] Estimating duration from bitrate, this may be inaccurate\nInput <span class=\"pl-c\"><span class=\"pl-c\">#</span>0, mp3, from 'in.mp3':</span>\n  Metadata:\n    title           <span class=\"pl-c1\">:</span> jet-60-low\n    artist          <span class=\"pl-c1\">:</span> Jon Dattorro\n    album           <span class=\"pl-c1\">:</span> Tinnitus\n    date            <span class=\"pl-c1\">:</span> 2003\n    comment         <span class=\"pl-c1\">:</span> 105 Hz Q 1\n    track           <span class=\"pl-c1\">:</span> 2\n    genre           <span class=\"pl-c1\">:</span> Noise\n  Duration: 01:00:00.11, start: 0.000000, bitrate: 64 kb/s\n    Stream <span class=\"pl-c\"><span class=\"pl-c\">#</span>0:0: Audio: mp3, 22050 Hz, stereo, s16p, 64 kb/s</span>\n[wav @ 0000000000edb020] Using AVStream.codec to pass codec parameters to muxers is deprecated, use AVStream.codecpar instead.\nOutput <span class=\"pl-c\"><span class=\"pl-c\">#</span>0, wav, to 'out.wav':</span>\n  Metadata:\n    INAM            <span class=\"pl-c1\">:</span> jet-60-low\n    IART            <span class=\"pl-c1\">:</span> Jon Dattorro\n    IPRD            <span class=\"pl-c1\">:</span> Tinnitus\n    ICRD            <span class=\"pl-c1\">:</span> 2003\n    ICMT            <span class=\"pl-c1\">:</span> 105 Hz Q 1\n    IPRT            <span class=\"pl-c1\">:</span> 2\n    IGNR            <span class=\"pl-c1\">:</span> Noise\n    ISFT            <span class=\"pl-c1\">:</span> Lavf57.34.102\n    Stream <span class=\"pl-c\"><span class=\"pl-c\">#</span>0:0: Audio: pcm_s16le ([1][0][0][0] / 0x0001), 44100 Hz, stereo, s16, 1411 kb/s</span>\n    Metadata:\n      encoder         <span class=\"pl-c1\">:</span> Lavc57.35.100 pcm_s16le\nStream mapping:\n  Stream <span class=\"pl-c\"><span class=\"pl-c\">#</span>0:0 -&gt; #0:0 (mp3 (native) -&gt; pcm_s16le (native))</span>\nPress [q] to stop, [<span class=\"pl-k\">?</span>] <span class=\"pl-k\">for</span> <span class=\"pl-c1\">help</span>\nsize=  620172kB time=01:00:00.09 bitrate=1411.2kbits/s speed= 225x</pre></div>\n<h3>FFmpeg on valid MP3 file with <code>-loglevel error</code> and with <code>-hide_banner</code> (new semantics)</h3>\n<div class=\"highlight highlight-source-shell\"><pre>$ ffmpeg -loglevel error -nostats -i in.mp3 -acodec pcm_s16le -ar 44100 out.wav -hide_banner</pre></div>\n<h3>FFmpeg on text file (invalid) with <code>-loglevel error</code> and with <code>-hide_banner</code> (new semantics)</h3>\n<div class=\"highlight highlight-source-shell\"><pre>$ ffmpeg -loglevel error -nostats -i in.txt -acodec pcm_s16le -ar 44100 out.wav -hide_banner\nOutput file <span class=\"pl-c\"><span class=\"pl-c\">#</span>0 does not contain any stream</span></pre></div>", "body_text": "The tf.contrib.ffmpeg.decode_* and tf.contrib.ffmpeg.encode_* functions are extremely verbose and make it nearly impossible to see other printed messages.\nCorresponding methods for image such as tf.image.decode_png produce no output under normal conditions, and it would be nice for audio/video methods to align with this.\nFFmpeg on valid MP3 file with -loglevel info and without -hide_banner (old semantics)\n$ ffmpeg -loglevel info -nostats -i in.mp3 -acodec pcm_s16le -ar 44100 out.wav\nffmpeg version N-79546-g13406b6 Copyright (c) 2000-2016 the FFmpeg developers\n  built with gcc 5.3.0 (GCC)\n  configuration: --enable-gpl --enable-version3 --disable-w32threads --enable-avisynth --enable-bzlib --enable-fontconfig --enable-frei0r --enable-gnutls --enable-iconv --enable-libass --enable-libbluray --enable-libbs2b --enable-libcaca --enable-libfreetype --enable-libgme --enable-libgsm --enable-libilbc --enable-libmodplug --enable-libmfx --enable-libmp3lame --enable-libopencore-amrnb --enable-libopencore-amrwb --enable-libopenjpeg --enable-libopus --enable-librtmp --enable-libschroedinger --enable-libsnappy --enable-libsoxr --enable-libspeex --enable-libtheora --enable-libtwolame --enable-libvidstab --enable-libvo-amrwbenc --enable-libvorbis --enable-libvpx --enable-libwavpack --enable-libwebp --enable-libx264 --enable-libx265 --enable-libxavs --enable-libxvid --enable-libzimg --enable-lzma --enable-decklink --enable-zlib\n  libavutil      55. 22.100 / 55. 22.100\n  libavcodec     57. 35.100 / 57. 35.100\n  libavformat    57. 34.102 / 57. 34.102\n  libavdevice    57.  0.101 / 57.  0.101\n  libavfilter     6. 44.100 /  6. 44.100\n  libswscale      4.  1.100 /  4.  1.100\n  libswresample   2.  0.101 /  2.  0.101\n  libpostproc    54.  0.100 / 54.  0.100\n[mp3 @ 00000000010771e0] Estimating duration from bitrate, this may be inaccurate\nInput #0, mp3, from 'in.mp3':\n  Metadata:\n    title           : jet-60-low\n    artist          : Jon Dattorro\n    album           : Tinnitus\n    date            : 2003\n    comment         : 105 Hz Q 1\n    track           : 2\n    genre           : Noise\n  Duration: 01:00:00.11, start: 0.000000, bitrate: 64 kb/s\n    Stream #0:0: Audio: mp3, 22050 Hz, stereo, s16p, 64 kb/s\n[wav @ 0000000000edb020] Using AVStream.codec to pass codec parameters to muxers is deprecated, use AVStream.codecpar instead.\nOutput #0, wav, to 'out.wav':\n  Metadata:\n    INAM            : jet-60-low\n    IART            : Jon Dattorro\n    IPRD            : Tinnitus\n    ICRD            : 2003\n    ICMT            : 105 Hz Q 1\n    IPRT            : 2\n    IGNR            : Noise\n    ISFT            : Lavf57.34.102\n    Stream #0:0: Audio: pcm_s16le ([1][0][0][0] / 0x0001), 44100 Hz, stereo, s16, 1411 kb/s\n    Metadata:\n      encoder         : Lavc57.35.100 pcm_s16le\nStream mapping:\n  Stream #0:0 -> #0:0 (mp3 (native) -> pcm_s16le (native))\nPress [q] to stop, [?] for help\nsize=  620172kB time=01:00:00.09 bitrate=1411.2kbits/s speed= 225x\nFFmpeg on valid MP3 file with -loglevel error and with -hide_banner (new semantics)\n$ ffmpeg -loglevel error -nostats -i in.mp3 -acodec pcm_s16le -ar 44100 out.wav -hide_banner\nFFmpeg on text file (invalid) with -loglevel error and with -hide_banner (new semantics)\n$ ffmpeg -loglevel error -nostats -i in.txt -acodec pcm_s16le -ar 44100 out.wav -hide_banner\nOutput file #0 does not contain any stream", "body": "The `tf.contrib.ffmpeg.decode_*` and `tf.contrib.ffmpeg.encode_*` functions are extremely verbose and make it nearly impossible to see other printed messages.\r\n\r\nCorresponding methods for image such as `tf.image.decode_png` produce no output under normal conditions, and it would be nice for audio/video methods to align with this.\r\n\r\n### FFmpeg on valid MP3 file with `-loglevel info` and without `-hide_banner` (old semantics)\r\n\r\n```sh\r\n$ ffmpeg -loglevel info -nostats -i in.mp3 -acodec pcm_s16le -ar 44100 out.wav\r\nffmpeg version N-79546-g13406b6 Copyright (c) 2000-2016 the FFmpeg developers\r\n  built with gcc 5.3.0 (GCC)\r\n  configuration: --enable-gpl --enable-version3 --disable-w32threads --enable-avisynth --enable-bzlib --enable-fontconfig --enable-frei0r --enable-gnutls --enable-iconv --enable-libass --enable-libbluray --enable-libbs2b --enable-libcaca --enable-libfreetype --enable-libgme --enable-libgsm --enable-libilbc --enable-libmodplug --enable-libmfx --enable-libmp3lame --enable-libopencore-amrnb --enable-libopencore-amrwb --enable-libopenjpeg --enable-libopus --enable-librtmp --enable-libschroedinger --enable-libsnappy --enable-libsoxr --enable-libspeex --enable-libtheora --enable-libtwolame --enable-libvidstab --enable-libvo-amrwbenc --enable-libvorbis --enable-libvpx --enable-libwavpack --enable-libwebp --enable-libx264 --enable-libx265 --enable-libxavs --enable-libxvid --enable-libzimg --enable-lzma --enable-decklink --enable-zlib\r\n  libavutil      55. 22.100 / 55. 22.100\r\n  libavcodec     57. 35.100 / 57. 35.100\r\n  libavformat    57. 34.102 / 57. 34.102\r\n  libavdevice    57.  0.101 / 57.  0.101\r\n  libavfilter     6. 44.100 /  6. 44.100\r\n  libswscale      4.  1.100 /  4.  1.100\r\n  libswresample   2.  0.101 /  2.  0.101\r\n  libpostproc    54.  0.100 / 54.  0.100\r\n[mp3 @ 00000000010771e0] Estimating duration from bitrate, this may be inaccurate\r\nInput #0, mp3, from 'in.mp3':\r\n  Metadata:\r\n    title           : jet-60-low\r\n    artist          : Jon Dattorro\r\n    album           : Tinnitus\r\n    date            : 2003\r\n    comment         : 105 Hz Q 1\r\n    track           : 2\r\n    genre           : Noise\r\n  Duration: 01:00:00.11, start: 0.000000, bitrate: 64 kb/s\r\n    Stream #0:0: Audio: mp3, 22050 Hz, stereo, s16p, 64 kb/s\r\n[wav @ 0000000000edb020] Using AVStream.codec to pass codec parameters to muxers is deprecated, use AVStream.codecpar instead.\r\nOutput #0, wav, to 'out.wav':\r\n  Metadata:\r\n    INAM            : jet-60-low\r\n    IART            : Jon Dattorro\r\n    IPRD            : Tinnitus\r\n    ICRD            : 2003\r\n    ICMT            : 105 Hz Q 1\r\n    IPRT            : 2\r\n    IGNR            : Noise\r\n    ISFT            : Lavf57.34.102\r\n    Stream #0:0: Audio: pcm_s16le ([1][0][0][0] / 0x0001), 44100 Hz, stereo, s16, 1411 kb/s\r\n    Metadata:\r\n      encoder         : Lavc57.35.100 pcm_s16le\r\nStream mapping:\r\n  Stream #0:0 -> #0:0 (mp3 (native) -> pcm_s16le (native))\r\nPress [q] to stop, [?] for help\r\nsize=  620172kB time=01:00:00.09 bitrate=1411.2kbits/s speed= 225x\r\n```\r\n\r\n### FFmpeg on valid MP3 file with `-loglevel error` and with `-hide_banner` (new semantics)\r\n\r\n```sh\r\n$ ffmpeg -loglevel error -nostats -i in.mp3 -acodec pcm_s16le -ar 44100 out.wav -hide_banner\r\n```\r\n\r\n### FFmpeg on text file (invalid) with `-loglevel error` and with `-hide_banner` (new semantics)\r\n\r\n```sh\r\n$ ffmpeg -loglevel error -nostats -i in.txt -acodec pcm_s16le -ar 44100 out.wav -hide_banner\r\nOutput file #0 does not contain any stream\r\n```"}